<svg width="820" height="300" viewBox="0 0 820 300" xmlns="http://www.w3.org/2000/svg">
  <defs>
    <pattern id="sm" width="10" height="10" patternUnits="userSpaceOnUse">
      <path d="M 10 0 L 0 0 0 10" fill="none" stroke="#0c1a14" stroke-width="0.5"/>
    </pattern>
    <pattern id="lg" width="50" height="50" patternUnits="userSpaceOnUse">
      <rect width="50" height="50" fill="url(#sm)"/>
      <path d="M 50 0 L 0 0 0 50" fill="none" stroke="#123020" stroke-width="0.9"/>
    </pattern>
  </defs>
  <rect width="820" height="300" rx="10" fill="#04070a"/>
  <rect width="820" height="300" rx="10" fill="url(#lg)"/>
  <rect x="0.7" y="0.7" width="818.6" height="298.6" rx="9.3" fill="none" stroke="#123020" stroke-width="1.4"/>

  <text x="52" y="52" font-family="'Courier New', monospace" font-size="16" letter-spacing="4" fill="#00ff88">GITHUB READOUT</text>
  <text x="770" y="52" text-anchor="end" font-family="'Courier New', monospace" font-size="14" letter-spacing="2" fill="#2f6b4d">Dong-Hyuk Lee</text>
  <line x1="52" y1="68" x2="770" y2="68" stroke="#123020" stroke-width="1.2"/>

  <text x="52" y="90" font-family="'Courier New', monospace" font-size="12" letter-spacing="3" fill="#2f6b4d">SUMMARY</text>
  <text x="52" y="112" font-family="'Courier New', monospace" font-size="15" fill="#7ddfc3">PUBLIC REPOS</text><text x="250" y="112" text-anchor="end" font-family="'Courier New', monospace" font-size="15" fill="#ffffff">11</text><text x="52" y="142" font-family="'Courier New', monospace" font-size="15" fill="#7ddfc3">TOTAL STARS</text><text x="250" y="142" text-anchor="end" font-family="'Courier New', monospace" font-size="15" fill="#ffffff">1</text><text x="52" y="172" font-family="'Courier New', monospace" font-size="15" fill="#7ddfc3">FOLLOWERS</text><text x="250" y="172" text-anchor="end" font-family="'Courier New', monospace" font-size="15" fill="#ffffff">1</text><text x="52" y="202" font-family="'Courier New', monospace" font-size="15" fill="#7ddfc3">FOLLOWING</text><text x="250" y="202" text-anchor="end" font-family="'Courier New', monospace" font-size="15" fill="#ffffff">2</text>

  <text x="330" y="90" font-family="'Courier New', monospace" font-size="12" letter-spacing="3" fill="#2f6b4d">LANGUAGE DISTRIBUTION</text>
  <rect x="330.0" y="98" width="431.2" height="14" fill="#00ff88" rx="2"/><rect x="763.2" y="98" width="4.7" height="14" fill="#00c7b7" rx="2"/><rect x="769.9" y="98" width="1.0" height="14" fill="#7ddfc3" rx="2"/>
  <circle cx="340" cy="144" r="4.5" fill="#00ff88"/><text x="356" y="149" font-family="'Courier New', monospace" font-size="14" fill="#7ddfc3">Jupyter Notebook</text><text x="770" y="149" text-anchor="end" font-family="'Courier New', monospace" font-size="14" fill="#ffffff">98.9%</text><circle cx="340" cy="170" r="4.5" fill="#00c7b7"/><text x="356" y="175" font-family="'Courier New', monospace" font-size="14" fill="#7ddfc3">Python</text><text x="770" y="175" text-anchor="end" font-family="'Courier New', monospace" font-size="14" fill="#ffffff">1.1%</text><circle cx="340" cy="196" r="4.5" fill="#7ddfc3"/><text x="356" y="201" font-family="'Courier New', monospace" font-size="14" fill="#7ddfc3">Swift</text><text x="770" y="201" text-anchor="end" font-family="'Courier New', monospace" font-size="14" fill="#ffffff">0.0%</text>
</svg>
